<svg width="36" height="36" viewBox="0 0 36 36" fill="none" xmlns="http://www.w3.org/2000/svg">
<path d="M10.9258 23.5781H14.5469C14.6084 25.248 15.9795 26.7949 18.001 26.7949C20.0137 26.7949 21.3936 25.2656 21.4639 23.5781H25.0762C25.9902 23.5781 26.5527 23.0771 26.5527 22.3213C26.5527 21.3809 25.7002 20.5811 24.9004 19.8164C24.2764 19.21 24.127 17.9971 24.0127 16.7578C23.8896 13.4443 22.9141 11.2295 20.6289 10.4033C20.2861 9.23438 19.3105 8.34668 18.001 8.34668C16.6914 8.34668 15.7158 9.23438 15.3818 10.4033C13.0879 11.2295 12.1211 13.4443 11.9893 16.7578C11.875 17.9971 11.7256 19.21 11.1016 19.8164C10.3018 20.5811 9.44922 21.3809 9.44922 22.3213C9.44922 23.0771 10.0117 23.5781 10.9258 23.5781ZM11.5938 21.9434V21.8379C11.8223 21.583 12.332 21.1172 12.7627 20.625C13.3691 19.9307 13.6504 18.6475 13.7383 16.9775C13.8438 13.4531 14.9336 12.2666 16.3398 11.8887C16.5596 11.8271 16.6738 11.7217 16.6914 11.4844C16.7354 10.5967 17.2363 9.99902 18.001 9.99902C18.7744 9.99902 19.2666 10.5967 19.3105 11.4844C19.3281 11.7217 19.4512 11.8271 19.6621 11.8887C21.0771 12.2666 22.1582 13.4531 22.2637 16.9775C22.3604 18.6475 22.6416 19.9307 23.2393 20.625C23.6699 21.1172 24.1621 21.583 24.3906 21.8379V21.9434H11.5938ZM18.001 25.3799C17.0078 25.3799 16.2959 24.668 16.2344 23.5781H19.7764C19.7236 24.6592 19.0029 25.3799 18.001 25.3799Z" fill="#767681"/>
</svg>
