<svg width="53" height="30" viewBox="0 0 53 30" fill="none" xmlns="http://www.w3.org/2000/svg">
<path d="M19.1272 20.1258L19.1258 20.1272C18.4535 20.8012 17.6547 21.3357 16.7752 21.7C15.8957 22.0643 14.9529 22.2512 14.001 22.25L13.999 22.25C13.0471 22.2512 12.1043 22.0643 11.2248 21.7C10.3453 21.3357 9.54648 20.8012 8.87422 20.1272L8.87283 20.1258C8.19882 19.4535 7.66429 18.6547 7.29999 17.7752C6.93568 16.8957 6.74877 15.9529 6.75001 15.001L6.75001 14.999C6.74879 14.0471 6.93571 13.1043 7.30002 12.2248C7.66432 11.3453 8.19884 10.5465 8.87285 9.87422L8.87422 9.87285C9.54648 9.19884 10.3453 8.66432 11.2248 8.30002C12.1043 7.93571 13.0471 7.74879 13.999 7.75001L14.001 7.75001C14.9529 7.74877 15.8957 7.93568 16.7752 8.29999C17.6547 8.66429 18.4535 9.19882 19.1258 9.87284L19.1272 9.87422C19.8012 10.5465 20.3357 11.3453 20.7 12.2248C21.0643 13.1043 21.2512 14.0471 21.25 14.999L21.25 15.001C21.2512 15.9529 21.0643 16.8957 20.7 17.7752C20.3357 18.6547 19.8012 19.4535 19.1272 20.1258Z" stroke="#767681" stroke-width="1.5" stroke-linejoin="round"/>
<path d="M35.334 20.728H34.008V17.933H28.223V16.828H35.334V20.728ZM35.334 16.295H34.008V9.964H35.334V16.295ZM29.666 10.575C30.1946 10.575 30.6713 10.6877 31.096 10.913C31.5206 11.1297 31.8543 11.4373 32.097 11.836C32.3396 12.226 32.461 12.668 32.461 13.162C32.461 13.6647 32.3396 14.1153 32.097 14.514C31.8543 14.9127 31.5206 15.2247 31.096 15.45C30.6713 15.6667 30.1946 15.775 29.666 15.775C29.1286 15.775 28.6433 15.6667 28.21 15.45C27.7853 15.2247 27.4473 14.9127 27.196 14.514C26.9533 14.1153 26.832 13.6647 26.832 13.162C26.832 12.668 26.9533 12.226 27.196 11.836C27.4473 11.4373 27.7853 11.1297 28.21 10.913C28.6433 10.6877 29.1286 10.575 29.666 10.575ZM29.666 11.732C29.2153 11.732 28.847 11.862 28.561 12.122C28.275 12.382 28.132 12.7287 28.132 13.162C28.132 13.6127 28.2706 13.9723 28.548 14.241C28.834 14.501 29.2066 14.631 29.666 14.631C30.108 14.631 30.4676 14.501 30.745 14.241C31.0223 13.9723 31.161 13.6127 31.161 13.162C31.161 12.7287 31.018 12.382 30.732 12.122C30.4546 11.862 30.0993 11.732 29.666 11.732ZM44.664 12.668H41.882V11.589H44.664V12.668ZM44.716 14.826H41.882V13.721H44.716V14.826ZM45.574 16.282H44.235V9.964H45.574V16.282ZM42.194 15.658H37.293V10.77H42.194V15.658ZM38.593 14.566H40.894V11.849H38.593V14.566ZM42.038 16.581C43.1473 16.581 44.0183 16.763 44.651 17.127C45.2837 17.491 45.6 17.998 45.6 18.648C45.6 19.298 45.2837 19.805 44.651 20.169C44.027 20.533 43.156 20.715 42.038 20.715C40.9287 20.715 40.0577 20.533 39.425 20.169C38.7923 19.805 38.476 19.298 38.476 18.648C38.476 17.998 38.7923 17.491 39.425 17.127C40.0663 16.763 40.9373 16.581 42.038 16.581ZM42.038 17.621C41.3187 17.621 40.764 17.7077 40.374 17.881C39.9927 18.0543 39.802 18.31 39.802 18.648C39.802 18.986 39.9927 19.2417 40.374 19.415C40.764 19.5883 41.3187 19.675 42.038 19.675C42.766 19.675 43.3207 19.5883 43.702 19.415C44.092 19.2417 44.287 18.986 44.287 18.648C44.287 18.31 44.092 18.0543 43.702 17.881C43.3207 17.7077 42.766 17.621 42.038 17.621Z" fill="#767681"/>
</svg>
