<svg width="36" height="36" viewBox="0 0 36 36" fill="none" xmlns="http://www.w3.org/2000/svg">
<path d="M9 24V15C9 14.4696 9.21071 13.9609 9.58579 13.5858C9.96086 13.2107 10.4696 13 11 13H11.93C12.2592 13 12.5833 12.9188 12.8736 12.7636C13.1638 12.6083 13.4113 12.3838 13.594 12.11L14.406 10.89C14.5887 10.6162 14.8362 10.3917 15.1264 10.2364C15.4167 10.0812 15.7408 9.99995 16.07 10H19.93C20.2592 9.99995 20.5833 10.0812 20.8736 10.2364C21.1638 10.3917 21.4113 10.6162 21.594 10.89L22.406 12.11C22.5887 12.3838 22.8362 12.6083 23.1264 12.7636C23.4167 12.9188 23.7408 13 24.07 13H25C25.5304 13 26.0391 13.2107 26.4142 13.5858C26.7893 13.9609 27 14.4696 27 15V24C27 24.5304 26.7893 25.0391 26.4142 25.4142C26.0391 25.7893 25.5304 26 25 26H11C10.4696 26 9.96086 25.7893 9.58579 25.4142C9.21071 25.0391 9 24.5304 9 24Z" stroke="white" stroke-width="2" stroke-linecap="round" stroke-linejoin="round"/>
<path d="M18 22C19.6569 22 21 20.6569 21 19C21 17.3431 19.6569 16 18 16C16.3431 16 15 17.3431 15 19C15 20.6569 16.3431 22 18 22Z" stroke="white" stroke-width="2" stroke-linecap="round" stroke-linejoin="round"/>
</svg>
