<svg width="18" height="18" viewBox="0 0 18 18" fill="none" xmlns="http://www.w3.org/2000/svg">
<g id="Group">
<path id="Vector" d="M1.5 15.9083V3.16667C1.5 2.72464 1.67559 2.30072 1.98816 1.98816C2.30072 1.67559 2.72464 1.5 3.16667 1.5H14.8333C15.2754 1.5 15.6993 1.67559 16.0118 1.98816C16.3244 2.30072 16.5 2.72464 16.5 3.16667V11.5C16.5 11.942 16.3244 12.366 16.0118 12.6785C15.6993 12.9911 15.2754 13.1667 14.8333 13.1667H5.63417C5.38436 13.1667 5.13776 13.2229 4.91259 13.3311C4.68743 13.4392 4.48946 13.5967 4.33333 13.7917L2.39083 16.22C2.32619 16.301 2.23797 16.3599 2.13837 16.3886C2.03877 16.4173 1.93272 16.4143 1.83488 16.3801C1.73705 16.3459 1.65227 16.2821 1.59228 16.1976C1.53228 16.1131 1.50004 16.012 1.5 15.9083Z" stroke="#767681" stroke-width="1.5" stroke-linejoin="round"/>
<path id="Vector_2" d="M4.83398 9.0013H13.1673M4.83398 5.66797H9.83398" stroke="#767681" stroke-width="1.5" stroke-linecap="round" stroke-linejoin="round"/>
</g>
</svg>
