<svg width="16" height="16" viewBox="0 0 16 16" fill="none" xmlns="http://www.w3.org/2000/svg">
<path d="M5.07799 13.3332C4.78154 13.3332 4.52799 13.2276 4.31732 13.0165C4.10666 12.8054 4.0011 12.5523 4.00066 12.2572V3.99982H3.66732C3.57266 3.99982 3.49354 3.96782 3.42999 3.90382C3.36643 3.83982 3.33443 3.76049 3.33399 3.66582C3.33354 3.57116 3.36554 3.49205 3.42999 3.42849C3.49443 3.36494 3.57354 3.33316 3.66732 3.33316H6.00066C6.00066 3.19538 6.05177 3.07538 6.15399 2.97316C6.25621 2.87094 6.37621 2.81982 6.51399 2.81982H9.48732C9.6251 2.81982 9.7451 2.87094 9.84732 2.97316C9.94954 3.07538 10.0007 3.19538 10.0007 3.33316H12.334C12.4287 3.33316 12.5078 3.36516 12.5713 3.42916C12.6349 3.49316 12.6669 3.57249 12.6673 3.66716C12.6678 3.76182 12.6358 3.84094 12.5713 3.90449C12.5069 3.96805 12.4278 3.99982 12.334 3.99982H12.0007V12.2565C12.0007 12.5525 11.8951 12.8058 11.684 13.0165C11.4729 13.2272 11.2195 13.3327 10.924 13.3332H5.07799ZM11.334 3.99982H4.66732V12.2565C4.66732 12.376 4.70577 12.4743 4.78266 12.5512C4.85954 12.628 4.95799 12.6665 5.07799 12.6665H10.924C11.0435 12.6665 11.1418 12.628 11.2187 12.5512C11.2955 12.4743 11.334 12.376 11.334 12.2565V3.99982ZM6.87266 11.3332C6.96732 11.3332 7.04666 11.3012 7.11066 11.2372C7.17466 11.1732 7.20643 11.094 7.20599 10.9998V5.66649C7.20599 5.57182 7.17399 5.49271 7.10999 5.42916C7.04599 5.3656 6.96666 5.3336 6.87199 5.33316C6.77732 5.33271 6.69821 5.36471 6.63466 5.42916C6.5711 5.4936 6.53932 5.57271 6.53932 5.66649V10.9998C6.53932 11.0945 6.57132 11.1736 6.63532 11.2372C6.69932 11.3012 6.77843 11.3332 6.87266 11.3332ZM9.12932 11.3332C9.22399 11.3332 9.3031 11.3012 9.36666 11.2372C9.43021 11.1732 9.46199 11.094 9.46199 10.9998V5.66649C9.46199 5.57182 9.42999 5.49271 9.36599 5.42916C9.30199 5.36516 9.22288 5.33316 9.12866 5.33316C9.03399 5.33316 8.95466 5.36516 8.89066 5.42916C8.82666 5.49316 8.79488 5.57227 8.79532 5.66649V10.9998C8.79532 11.0945 8.82732 11.1736 8.89132 11.2372C8.95532 11.3007 9.03466 11.3327 9.12932 11.3332Z" fill="#767681"/>
</svg>
