<svg width="16" height="16" viewBox="0 0 16 16" fill="none" xmlns="http://www.w3.org/2000/svg">
<path d="M3.33366 12.6665H4.06566L11.1977 5.53451L10.4657 4.80251L3.33366 11.9345V12.6665ZM2.66699 13.3332V11.6532L11.4537 2.85851C11.5225 2.79763 11.5981 2.75051 11.6803 2.71718C11.7625 2.68385 11.8485 2.66696 11.9383 2.66651C12.0281 2.66607 12.1148 2.68029 12.1983 2.70918C12.2828 2.73718 12.3605 2.78785 12.4317 2.86118L13.143 3.57718C13.2163 3.64785 13.2665 3.72563 13.2937 3.81051C13.3203 3.89496 13.3337 3.9794 13.3337 4.06385C13.3337 4.15451 13.3185 4.24118 13.2883 4.32385C13.2577 4.40607 13.2092 4.4814 13.143 4.54985L4.34633 13.3332H2.66699ZM10.8257 5.17451L10.4657 4.80251L11.1977 5.53451L10.8257 5.17451Z" fill="#767681"/>
</svg>
