<svg width="36" height="36" viewBox="0 0 36 36" fill="none" xmlns="http://www.w3.org/2000/svg">
<path d="M18.336 25.528L25.536 18.328C25.8335 18.028 26.0003 17.6225 26 17.2V11.6C26 11.1757 25.8314 10.7687 25.5314 10.4686C25.2313 10.1686 24.8243 10 24.4 10L18.8 10C18.5889 9.99983 18.3798 10.0415 18.1848 10.1225C17.9899 10.2035 17.8128 10.3223 17.664 10.472L10.464 17.672C10.1665 17.972 9.99966 18.3775 10 18.8C10.0018 19.2237 10.1715 19.6293 10.472 19.928L16.072 25.528C16.3707 25.8285 16.7763 25.9982 17.2 26C17.4111 26.0002 17.6202 25.9585 17.8152 25.8775C18.0101 25.7965 18.1872 25.6777 18.336 25.528ZM11.6 18.8L18.8 11.6L24.4 11.6L24.4 17.2L17.2 24.4M23.6 13.6C23.6 13.8373 23.5296 14.0693 23.3978 14.2667C23.2659 14.464 23.0785 14.6178 22.8592 14.7087C22.6399 14.7995 22.3987 14.8232 22.1659 14.7769C21.9331 14.7306 21.7193 14.6164 21.5515 14.4485C21.3836 14.2807 21.2694 14.0669 21.2231 13.8341C21.1768 13.6013 21.2005 13.3601 21.2913 13.1408C21.3822 12.9215 21.536 12.7341 21.7333 12.6022C21.9307 12.4704 22.1627 12.4 22.4 12.4C22.7183 12.4 23.0235 12.5264 23.2485 12.7515C23.4736 12.9765 23.6 13.2817 23.6 13.6Z" fill="#767681"/>
</svg>
