<svg width="32" height="32" viewBox="0 0 32 32" fill="none" xmlns="http://www.w3.org/2000/svg">
<g id="icon_heart_large">
<path id="Vector" d="M10.4619 16.5994L10.4619 16.5994L10.4603 16.5979C10.1174 16.2579 9.84498 15.8536 9.65874 15.4081C9.47249 14.9626 9.37607 14.4847 9.37501 14.0018C9.37395 13.519 9.46828 13.0407 9.65257 12.5944C9.83687 12.148 10.1075 11.7425 10.4489 11.4011C10.7904 11.0597 11.1959 10.789 11.6422 10.6047C12.0885 10.4204 12.5668 10.3261 13.0497 10.3272C13.5326 10.3282 14.0105 10.4246 14.456 10.6109C14.9015 10.7971 15.3058 11.0695 15.6457 11.4125L15.9948 11.7647L16.3499 11.4184C17.0404 10.7452 17.9683 10.371 18.9327 10.377C19.8971 10.3831 20.8203 10.7688 21.5023 11.4507C22.1843 12.1326 22.5701 13.0558 22.5763 14.0201C22.5825 14.9835 22.2093 15.9106 21.5374 16.6009L16.8257 21.3135C16.8256 21.3136 16.8256 21.3136 16.8256 21.3136C16.6068 21.5323 16.3101 21.6551 16.0008 21.6551C15.6915 21.6551 15.3948 21.5323 15.176 21.3136C15.176 21.3136 15.176 21.3135 15.176 21.3135L10.4619 16.5994Z" fill="#FF5656" stroke="#FF5656"/>
</g>
</svg>
