<svg width="32" height="32" viewBox="0 0 32 32" fill="none" xmlns="http://www.w3.org/2000/svg">
<g id="Property 1=empty">
<path id="Vector" d="M10.4619 16.6004L10.4619 16.6004L10.4603 16.5988C10.1174 16.2589 9.84498 15.8546 9.65874 15.4091C9.47249 14.9636 9.37607 14.4857 9.37501 14.0028C9.37395 13.52 9.46828 13.0416 9.65257 12.5953C9.83687 12.149 10.1075 11.7435 10.4489 11.4021C10.7904 11.0606 11.1959 10.79 11.6422 10.6057C12.0885 10.4214 12.5668 10.3271 13.0497 10.3281C13.5326 10.3292 14.0105 10.4256 14.456 10.6119C14.9015 10.7981 15.3058 11.0705 15.6457 11.4134L15.9948 11.7656L16.3499 11.4194C17.0404 10.7461 17.9683 10.372 18.9327 10.378C19.8971 10.3841 20.8203 10.7698 21.5023 11.4517C22.1843 12.1336 22.5701 13.0567 22.5763 14.0211C22.5825 14.9845 22.2093 15.9116 21.5374 16.6019L16.8257 21.3145C16.8256 21.3145 16.8256 21.3145 16.8256 21.3145C16.8256 21.3146 16.8256 21.3146 16.8256 21.3146C16.6068 21.5333 16.3101 21.6561 16.0008 21.6561C15.6915 21.6561 15.3948 21.5332 15.176 21.3146C15.176 21.3145 15.176 21.3145 15.176 21.3145L10.4619 16.6004Z" stroke="#767681"/>
</g>
</svg>
