<svg width="36" height="36" viewBox="0 0 36 36" fill="none" xmlns="http://www.w3.org/2000/svg">
<path fill-rule="evenodd" clip-rule="evenodd" d="M22.8462 11.0769H13.1538C12.603 11.0769 12.0747 11.2957 11.6852 11.6852C11.2957 12.0747 11.0769 12.603 11.0769 13.1538V20.1143L12.4089 19.1451C12.8281 18.8405 13.3338 18.6784 13.8519 18.6823C14.37 18.6863 14.8731 18.8563 15.2875 19.1672L16.5725 20.1309L19.8512 17.3202C20.302 16.9341 20.8788 16.7269 21.4722 16.7379C22.0655 16.7489 22.6343 16.9772 23.0705 17.3797L24.9231 19.0897V13.1538C24.9231 12.603 24.7043 12.0747 24.3148 11.6852C23.9253 11.2957 23.397 11.0769 22.8462 11.0769ZM27 21.4588V13.1538C27 12.0522 26.5624 10.9956 25.7834 10.2166C25.0044 9.43764 23.9478 9 22.8462 9H13.1538C12.0522 9 10.9956 9.43764 10.2166 10.2166C9.43764 10.9956 9 12.0522 9 13.1538V22.8462C9 23.9478 9.43764 25.0044 10.2166 25.7834C10.9956 26.5624 12.0522 27 13.1538 27H22.8462C23.9478 27 25.0044 26.5624 25.7834 25.7834C26.5624 25.0044 27 23.9478 27 22.8462V21.4588ZM24.9231 21.9157L21.6623 18.9055C21.6 18.8481 21.5188 18.8156 21.434 18.814C21.3493 18.8125 21.267 18.8421 21.2026 18.8972L17.2911 22.2508L16.6583 22.7935L15.9923 22.2937L14.04 20.8302C13.9809 20.7861 13.9092 20.7621 13.8355 20.7616C13.7618 20.7611 13.6899 20.7841 13.6302 20.8274L11.0769 22.6814V22.8462C11.0769 23.397 11.2957 23.9253 11.6852 24.3148C12.0747 24.7043 12.603 24.9231 13.1538 24.9231H22.8462C23.397 24.9231 23.9253 24.7043 24.3148 24.3148C24.7043 23.9253 24.9231 23.397 24.9231 22.8462V21.9157ZM17.3077 15.2308C17.3077 15.7816 17.0889 16.3099 16.6994 16.6994C16.3099 17.0889 15.7816 17.3077 15.2308 17.3077C14.6799 17.3077 14.1517 17.0889 13.7622 16.6994C13.3727 16.3099 13.1538 15.7816 13.1538 15.2308C13.1538 14.6799 13.3727 14.1517 13.7622 13.7622C14.1517 13.3727 14.6799 13.1538 15.2308 13.1538C15.7816 13.1538 16.3099 13.3727 16.6994 13.7622C17.0889 14.1517 17.3077 14.6799 17.3077 15.2308Z" fill="white"/>
</svg>
