<svg width="36" height="36" viewBox="0 0 36 36" fill="none" xmlns="http://www.w3.org/2000/svg">
<path d="M23 13H20C19.45 13 19 13.45 19 14C19 14.55 19.45 15 20 15H23C24.65 15 26 16.35 26 18C26 19.65 24.65 21 23 21H20C19.45 21 19 21.45 19 22C19 22.55 19.45 23 20 23H23C25.76 23 28 20.76 28 18C28 15.24 25.76 13 23 13ZM14 18C14 18.55 14.45 19 15 19H21C21.55 19 22 18.55 22 18C22 17.45 21.55 17 21 17H15C14.45 17 14 17.45 14 18ZM16 21H13C11.35 21 10 19.65 10 18C10 16.35 11.35 15 13 15H16C16.55 15 17 14.55 17 14C17 13.45 16.55 13 16 13H13C10.24 13 8 15.24 8 18C8 20.76 10.24 23 13 23H16C16.55 23 17 22.55 17 22C17 21.45 16.55 21 16 21Z" fill="white"/>
</svg>
