<svg width="15" height="15" viewBox="0 0 15 15" fill="none" xmlns="http://www.w3.org/2000/svg">
<path d="M10.4348 11.6395C11.849 13.0537 10.0812 14.8215 8.667 13.4073L5.48502 10.2253L2.30306 7.04335C0.888844 5.62913 2.65663 3.86139 4.07082 5.27558L5.13146 6.33622C5.13146 6.33622 7.95993 1.38649 10.0812 1.38647C10.7883 1.38649 14.3239 4.92199 14.3238 5.62911C14.3239 7.75042 9.3741 10.5789 9.3741 10.5789L10.4348 11.6395Z" fill="white"/>
<path d="M9.3741 10.5789L9.12603 10.1447C8.99073 10.2221 8.89921 10.358 8.87853 10.5125C8.85784 10.6669 8.91036 10.8222 9.02055 10.9324L9.3741 10.5789ZM14.3238 5.62911L13.8238 5.62907L13.8238 5.62911L14.3238 5.62911ZM10.0812 1.38647L10.0812 0.886471L10.0812 0.886471L10.0812 1.38647ZM5.13146 6.33622L4.77791 6.68977C4.8881 6.79996 5.04337 6.85248 5.19783 6.83179C5.35228 6.81111 5.48826 6.71959 5.56558 6.58429L5.13146 6.33622ZM0.888829 14.1144C0.693568 14.3097 0.693568 14.6262 0.888831 14.8215C1.08409 15.0168 1.40068 15.0168 1.59594 14.8215L0.888829 14.1144ZM8.31344 13.7608C8.74268 14.1901 9.23445 14.4106 9.72258 14.4263C10.2072 14.4419 10.6493 14.2534 10.9651 13.9376C11.2809 13.6218 11.4694 13.1797 11.4538 12.6951C11.438 12.207 11.2176 11.7152 10.7883 11.286L10.0812 11.9931C10.3591 12.2709 10.448 12.5305 10.4543 12.7273C10.4608 12.9277 10.3841 13.1044 10.258 13.2305C10.1319 13.3566 9.9552 13.4333 9.75483 13.4268C9.55795 13.4205 9.29841 13.3316 9.02055 13.0537L8.31344 13.7608ZM10.7883 11.286L9.72766 10.2253L9.02055 10.9324L10.0812 11.9931L10.7883 11.286ZM9.3741 10.5789C9.62217 11.013 9.62226 11.0129 9.62237 11.0129C9.62243 11.0128 9.62255 11.0128 9.62267 11.0127C9.62292 11.0126 9.62323 11.0124 9.62363 11.0121C9.62441 11.0117 9.62549 11.0111 9.62687 11.0103C9.62962 11.0087 9.63355 11.0064 9.63862 11.0035C9.64876 10.9976 9.66345 10.9891 9.68239 10.978C9.72027 10.9558 9.77518 10.9234 9.84468 10.8815C9.98363 10.7979 10.1812 10.6765 10.4179 10.5244C10.8904 10.2206 11.523 9.79151 12.1579 9.29263C12.7899 8.79607 13.4399 8.21823 13.9364 7.61529C14.4199 7.0282 14.8239 6.33891 14.8238 5.62911L13.8238 5.62911C13.8239 5.97996 13.6091 6.43972 13.1645 6.97958C12.733 7.50359 12.1455 8.0306 11.5401 8.50632C10.9376 8.97971 10.3327 9.3903 9.87712 9.68318C9.64977 9.82934 9.46063 9.94551 9.3289 10.0248C9.26305 10.0645 9.21161 10.0949 9.17699 10.1151C9.15968 10.1253 9.14657 10.1329 9.13798 10.1379C9.13368 10.1403 9.13051 10.1422 9.12851 10.1433C9.12751 10.1439 9.1268 10.1443 9.12638 10.1445C9.12618 10.1447 9.12604 10.1447 9.12598 10.1448C9.12595 10.1448 9.12597 10.1448 9.12595 10.1448C9.12598 10.1448 9.12603 10.1447 9.3741 10.5789ZM14.8238 5.62915C14.8239 5.49212 14.7839 5.36788 14.7478 5.27819C14.7088 5.18145 14.6569 5.08311 14.6 4.98761C14.4859 4.79642 14.3299 4.58084 14.1518 4.35676C13.7941 3.90667 13.3162 3.38402 12.8213 2.88907C12.3263 2.39413 11.8037 1.9163 11.3536 1.55854C11.1295 1.38042 10.9139 1.22446 10.7227 1.11039C10.6272 1.05342 10.5289 1.0015 10.4322 0.962543C10.3425 0.92643 10.2182 0.886475 10.0812 0.886471L10.0812 1.88647C10.0326 1.88647 10.0188 1.87414 10.0586 1.89016C10.0914 1.90335 10.1415 1.92807 10.2104 1.96916C10.3479 2.0512 10.5245 2.17698 10.7313 2.34137C11.143 2.66861 11.6368 3.11886 12.1142 3.59618C12.5915 4.0735 13.0417 4.56731 13.369 4.979C13.5334 5.18581 13.6591 5.36246 13.7412 5.49997C13.7823 5.56882 13.807 5.61894 13.8202 5.65167C13.8362 5.69146 13.8238 5.67772 13.8238 5.62907L14.8238 5.62915ZM10.0812 0.886471C9.37141 0.886476 8.68213 1.29042 8.09504 1.77391C7.4921 2.27045 6.91426 2.92045 6.4177 3.55244C5.91882 4.18737 5.48971 4.81996 5.18597 5.29244C5.03381 5.52912 4.91244 5.72669 4.82878 5.86564C4.78694 5.93514 4.75449 5.99005 4.73231 6.02793C4.72121 6.04687 4.71268 6.06156 4.70682 6.07169C4.70388 6.07676 4.70162 6.08069 4.70004 6.08345C4.69925 6.08482 4.69862 6.08591 4.69817 6.08669C4.69795 6.08708 4.69777 6.0874 4.69763 6.08764C4.69756 6.08777 4.69749 6.08789 4.69745 6.08795C4.69739 6.08806 4.69734 6.08815 5.13146 6.33622C5.56558 6.58429 5.56555 6.58434 5.56554 6.58437C5.56554 6.58436 5.56554 6.58437 5.56555 6.58434C5.56559 6.58428 5.56566 6.58415 5.56578 6.58394C5.56602 6.58353 5.56643 6.58282 5.567 6.58181C5.56816 6.57981 5.56998 6.57664 5.57247 6.57234C5.57744 6.56375 5.58505 6.55065 5.59518 6.53334C5.61547 6.49871 5.64586 6.44727 5.6855 6.38143C5.76481 6.24969 5.88099 6.06056 6.02714 5.8332C6.32003 5.37761 6.73062 4.77276 7.20402 4.17026C7.67973 3.56481 8.20674 2.97738 8.73075 2.54584C9.27061 2.10125 9.73037 1.88647 10.0812 1.88647L10.0812 0.886471ZM5.48502 5.98267L4.42438 4.92203L3.71727 5.62913L4.77791 6.68977L5.48502 5.98267ZM4.42438 4.92203C3.99514 4.49279 3.50337 4.27231 3.01524 4.25657C2.53061 4.24093 2.08857 4.42943 1.77274 4.74525C1.4569 5.06108 1.26841 5.50312 1.28404 5.98776C1.29978 6.47589 1.52026 6.96766 1.9495 7.3969L2.65661 6.68979C2.37875 6.41193 2.28987 6.1524 2.28352 5.95552C2.27706 5.75515 2.35373 5.57848 2.47984 5.45237C2.60595 5.32625 2.78263 5.24958 2.983 5.25605C3.17988 5.2624 3.43941 5.35127 3.71727 5.62913L4.42438 4.92203ZM1.9495 7.3969L5.13146 10.5789L5.83857 9.87175L2.65661 6.68979L1.9495 7.3969ZM5.13146 10.5789L8.31344 13.7608L9.02055 13.0537L5.83857 9.87175L5.13146 10.5789ZM5.13146 9.87175L0.888829 14.1144L1.59594 14.8215L5.83857 10.5789L5.13146 9.87175Z" fill="white"/>
</svg>
