<svg width="128" height="128" viewBox="0 0 128 128" fill="none" xmlns="http://www.w3.org/2000/svg">
<rect width="128" height="128" rx="30" fill="#171719"/>
<rect x="42.396" y="76.8354" width="43.1701" height="9.47637" fill="white"/>
<path fill-rule="evenodd" clip-rule="evenodd" d="M42.8872 100H54.5345C49.6227 96.5348 47.8408 73.0145 47.8408 69.6029C47.8408 69.3577 47.8392 69.0715 47.8373 68.7482C47.7957 61.4197 47.6458 35.0166 63.8582 35.0166C80.0707 35.0166 79.9207 61.4196 79.8791 68.7482C79.8773 69.0715 79.8757 69.3577 79.8757 69.6029C79.8757 73.0145 78.0937 96.5348 73.182 100H84.8292C87.9257 96.3057 89.7164 72.537 89.7164 68.5909C89.7164 59.6852 89.7164 28 63.8582 28C38 28 38 59.6852 38 68.5909C38 72.537 39.7907 96.3057 42.8872 100Z" fill="white"/>
<circle cx="63.9811" cy="61.568" r="5.79111" fill="#48FFBD"/>
</svg>
