<svg width="18" height="18" viewBox="0 0 18 18" fill="none" xmlns="http://www.w3.org/2000/svg">
<path d="M6.5998 1.7998H3.3998C2.51615 1.7998 1.7998 2.51615 1.7998 3.3998V6.5998M6.5998 16.1998H3.3998C2.51615 16.1998 1.7998 15.4835 1.7998 14.5998V11.3998M11.3998 1.7998H14.5998C15.4835 1.7998 16.1998 2.51615 16.1998 3.3998V6.5998M16.1998 11.3998V14.5998C16.1998 15.4835 15.4835 16.1998 14.5998 16.1998H11.3998" stroke="#48FFBD" stroke-linecap="round"/>
<rect x="4" y="4" width="4" height="4" rx="1" fill="#48FFBD"/>
<rect x="4.5" y="10.5" width="3" height="3" rx="0.5" stroke="#48FFBD"/>
<rect x="10.5" y="4.5" width="3" height="3" rx="0.5" stroke="#48FFBD"/>
<rect x="10.5" y="10.5" width="3" height="3" rx="0.5" stroke="#48FFBD"/>
</svg>
