<svg width="15" height="16" viewBox="0 0 15 16" fill="none" xmlns="http://www.w3.org/2000/svg">
<path fill-rule="evenodd" clip-rule="evenodd" d="M11.6667 2.5V1.66667C11.6667 1.22464 11.4911 0.800716 11.1785 0.488155C10.8659 0.175595 10.442 0 10 0H5C4.55797 0 4.13405 0.175595 3.82149 0.488155C3.50893 0.800716 3.33333 1.22464 3.33333 1.66667V2.5H0.833333C0.61232 2.5 0.400358 2.5878 0.244078 2.74408C0.0877973 2.90036 0 3.11232 0 3.33333C0 3.55435 0.0877973 3.76631 0.244078 3.92259C0.400358 4.07887 0.61232 4.16667 0.833333 4.16667H1.66667V13.3333C1.66667 13.9964 1.93006 14.6323 2.3989 15.1011C2.86774 15.5699 3.50363 15.8333 4.16667 15.8333H10.8333C11.4964 15.8333 12.1323 15.5699 12.6011 15.1011C13.0699 14.6323 13.3333 13.9964 13.3333 13.3333V4.16667H14.1667C14.3877 4.16667 14.5996 4.07887 14.7559 3.92259C14.9122 3.76631 15 3.55435 15 3.33333C15 3.11232 14.9122 2.90036 14.7559 2.74408C14.5996 2.5878 14.3877 2.5 14.1667 2.5H11.6667ZM10 1.66667H5V2.5H10V1.66667ZM11.6667 4.16667H3.33333V13.3333C3.33333 13.5543 3.42113 13.7663 3.57741 13.9226C3.73369 14.0789 3.94565 14.1667 4.16667 14.1667H10.8333C11.0543 14.1667 11.2663 14.0789 11.4226 13.9226C11.5789 13.7663 11.6667 13.5543 11.6667 13.3333V4.16667Z" fill="#ACACB5"/>
<path d="M5 5.83301H6.66667V12.4997H5V5.83301ZM8.33333 5.83301H10V12.4997H8.33333V5.83301Z" fill="#ACACB5"/>
</svg>
