<svg xmlns="http://www.w3.org/2000/svg" width="12" height="12" viewBox="0 0 12 12" fill="none">
  <path d="M0.375 11.1813V1.625C0.375 1.29348 0.506696 0.975537 0.741116 0.741116C0.975537 0.506696 1.29348 0.375 1.625 0.375H10.375C10.7065 0.375 11.0245 0.506696 11.2589 0.741116C11.4933 0.975537 11.625 1.29348 11.625 1.625V7.875C11.625 8.20652 11.4933 8.52446 11.2589 8.75888C11.0245 8.9933 10.7065 9.125 10.375 9.125H3.47563C3.28827 9.12502 3.10332 9.16716 2.93444 9.2483C2.76557 9.32944 2.6171 9.4475 2.5 9.59375L1.04312 11.415C0.994642 11.4758 0.928474 11.52 0.853775 11.5415C0.779075 11.563 0.699537 11.5607 0.626163 11.5351C0.552789 11.5094 0.489205 11.4616 0.444209 11.3982C0.399213 11.3348 0.375028 11.259 0.375 11.1813Z" fill="#767681"/>
</svg>
