<svg width="36" height="36" viewBox="0 0 36 36" fill="none" xmlns="http://www.w3.org/2000/svg">
<path d="M24.5824 16.5924H13.4124L18.2924 11.7124C18.6824 11.3224 18.6824 10.6824 18.2924 10.2924C18.1999 10.1997 18.09 10.1262 17.9691 10.076C17.8481 10.0258 17.7184 10 17.5874 10C17.4565 10 17.3268 10.0258 17.2058 10.076C17.0848 10.1262 16.975 10.1997 16.8824 10.2924L10.2924 16.8824C10.1997 16.975 10.1262 17.0848 10.076 17.2058C10.0258 17.3268 10 17.4565 10 17.5874C10 17.7184 10.0258 17.8481 10.076 17.9691C10.1262 18.09 10.1997 18.1999 10.2924 18.2924L16.8824 24.8824C16.975 24.975 17.0849 25.0485 17.2059 25.0986C17.3269 25.1487 17.4565 25.1745 17.5874 25.1745C17.7184 25.1745 17.848 25.1487 17.969 25.0986C18.09 25.0485 18.1999 24.975 18.2924 24.8824C18.385 24.7899 18.4585 24.68 18.5086 24.559C18.5587 24.438 18.5845 24.3084 18.5845 24.1774C18.5845 24.0465 18.5587 23.9169 18.5086 23.7959C18.4585 23.6749 18.385 23.565 18.2924 23.4724L13.4124 18.5924H24.5824C25.1324 18.5924 25.5824 18.1424 25.5824 17.5924C25.5824 17.0424 25.1324 16.5924 24.5824 16.5924Z" fill="white"/>
</svg>
