<svg width="28" height="28" viewBox="0 0 28 28" fill="none" xmlns="http://www.w3.org/2000/svg">
<path fill-rule="evenodd" clip-rule="evenodd" d="M4 9.86667C4 9.3716 4.21071 8.8968 4.58579 8.54673C4.96086 8.19667 5.46957 8 6 8H22C22.5304 8 23.0391 8.19667 23.4142 8.54673C23.7893 8.8968 24 9.3716 24 9.86667V20.1333C24 20.6284 23.7893 21.1032 23.4142 21.4533C23.0391 21.8033 22.5304 22 22 22H6C5.46957 22 4.96086 21.8033 4.58579 21.4533C4.21071 21.1032 4 20.6284 4 20.1333V9.86667ZM22 9.86667H6V20.1333H22V9.86667Z" fill="#ACACB5"/>
<path fill-rule="evenodd" clip-rule="evenodd" d="M9.75002 11.6747C9.75002 11.4883 9.82904 11.3095 9.96968 11.1777C10.1103 11.0459 10.3011 10.9719 10.5 10.9719H17.4995C17.6984 10.9719 17.8892 11.0459 18.0298 11.1777C18.1705 11.3095 18.2495 11.4883 18.2495 11.6747C18.2495 11.8611 18.1705 12.0399 18.0298 12.1717C17.8892 12.3035 17.6984 12.3775 17.4995 12.3775H10.5C10.3011 12.3775 10.1103 12.3035 9.96968 12.1717C9.82904 12.0399 9.75002 11.8611 9.75002 11.6747ZM8.75009 14.4859C8.75009 14.2995 8.8291 14.1208 8.96975 13.989C9.11039 13.8572 9.30114 13.7831 9.50004 13.7831H18.4995C18.6984 13.7831 18.8891 13.8572 19.0298 13.989C19.1704 14.1208 19.2494 14.2995 19.2494 14.4859C19.2494 14.6723 19.1704 14.8511 19.0298 14.9829C18.8891 15.1147 18.6984 15.1888 18.4995 15.1888H9.50004C9.30114 15.1888 9.11039 15.1147 8.96975 14.9829C8.8291 14.8511 8.75009 14.6723 8.75009 14.4859ZM9.75002 17.2972C9.75002 17.1108 9.82904 16.932 9.96968 16.8002C10.1103 16.6684 10.3011 16.5944 10.5 16.5944H17.4995C17.6984 16.5944 17.8892 16.6684 18.0298 16.8002C18.1705 16.932 18.2495 17.1108 18.2495 17.2972C18.2495 17.4836 18.1705 17.6623 18.0298 17.7942C17.8892 17.926 17.6984 18 17.4995 18H10.5C10.3011 18 10.1103 17.926 9.96968 17.7942C9.82904 17.6623 9.75002 17.4836 9.75002 17.2972ZM15.4137 5.42249C15.0386 5.07114 14.53 4.87376 13.9998 4.87376C13.4695 4.87376 12.9609 5.07114 12.5858 5.42249L8.70709 9.05837C8.61419 9.14537 8.50391 9.21437 8.38255 9.26144C8.26119 9.3085 8.13112 9.3327 7.99978 9.33265C7.86844 9.33261 7.7384 9.30832 7.61708 9.26118C7.49575 9.21404 7.38552 9.14496 7.29268 9.0579C7.19985 8.97084 7.12621 8.86749 7.076 8.75376C7.02578 8.64002 6.99995 8.51814 7 8.39505C7.00005 8.27197 7.02596 8.1501 7.07627 8.0364C7.12657 7.9227 7.20028 7.8194 7.29318 7.7324L11.1719 4.09746C11.922 3.39476 12.9392 3 13.9998 3C15.0603 3 16.0775 3.39476 16.8276 4.09746L20.7073 7.7324C20.8948 7.90823 21.0001 8.14667 21 8.39525C20.9999 8.64383 20.8944 8.88219 20.7068 9.0579C20.5192 9.23361 20.2648 9.33227 19.9995 9.33219C19.7343 9.3321 19.4799 9.23327 19.2924 9.05743L15.4137 5.42249Z" fill="#ACACB5"/>
</svg>
