<svg width="24" height="24" viewBox="0 0 24 24" fill="none" xmlns="http://www.w3.org/2000/svg">
<g id="uil:redo">
<path id="Vector" d="M21.059 11.3635C20.8018 11.3635 20.5552 11.4656 20.3733 11.6475C20.1915 11.8293 20.0893 12.076 20.0893 12.3332C20.1009 14.1494 19.4787 15.9129 18.33 17.3198C17.1812 18.7267 15.5778 19.689 13.7959 20.0409C12.0141 20.3928 10.1652 20.1124 8.56786 19.2479C6.9705 18.3833 5.72461 16.9888 5.04478 15.3046C4.36494 13.6203 4.29372 11.7516 4.84337 10.0205C5.39302 8.28936 6.52914 6.80407 8.05606 5.82046C9.58297 4.83684 11.4051 4.41646 13.2086 4.63174C15.0121 4.84701 16.6841 5.68445 17.9366 6.99982H15.6093C15.3521 6.99982 15.1055 7.10199 14.9236 7.28384C14.7418 7.46569 14.6396 7.71234 14.6396 7.96952C14.6396 8.2267 14.7418 8.47334 14.9236 8.6552C15.1055 8.83705 15.3521 8.93922 15.6093 8.93922H20.002C20.2592 8.93922 20.5059 8.83705 20.6877 8.6552C20.8696 8.47334 20.9717 8.2267 20.9717 7.96952V3.60588C20.9717 3.3487 20.8696 3.10206 20.6877 2.9202C20.5059 2.73835 20.2592 2.63619 20.002 2.63619C19.7449 2.63619 19.4982 2.73835 19.3164 2.9202C19.1345 3.10206 19.0323 3.3487 19.0323 3.60588V5.32225C17.4175 3.77855 15.3191 2.83978 13.092 2.66463C10.8649 2.48948 8.64556 3.08869 6.80924 4.36098C4.97291 5.63326 3.63221 7.50058 3.01375 9.64728C2.3953 11.794 2.53703 14.0884 3.41499 16.1426C4.29296 18.1969 5.85329 19.885 7.83224 20.9216C9.8112 21.9582 12.0874 22.2797 14.276 21.8318C16.4647 21.3839 18.4315 20.194 19.8441 18.4633C21.2567 16.7325 22.0284 14.5672 22.0287 12.3332C22.0287 12.076 21.9265 11.8293 21.7447 11.6475C21.5628 11.4656 21.3162 11.3635 21.059 11.3635Z" fill="white"/>
</g>
</svg>
