<svg width="29" height="29" viewBox="0 0 29 29" fill="none" xmlns="http://www.w3.org/2000/svg">
<path d="M13.1465 22.3369C13.5596 22.3369 13.8672 22.0117 13.8672 21.6162V6.70117C13.8672 6.29688 13.5508 5.98047 13.1465 5.98047C12.7422 5.98047 12.4258 6.29688 12.4258 6.70117V21.6162C12.4258 22.0117 12.7422 22.3369 13.1465 22.3369ZM18.5518 20.5879C18.9648 20.5879 19.2725 20.2715 19.2725 19.8672V8.4502C19.2725 8.0459 18.9561 7.72949 18.5518 7.72949C18.1387 7.72949 17.8311 8.0459 17.8311 8.4502V19.8672C17.8311 20.2715 18.1387 20.5879 18.5518 20.5879ZM10.4395 19.3311C10.8525 19.3311 11.1689 19.0146 11.1689 18.6104V9.70703C11.1689 9.30273 10.8525 8.98633 10.4395 8.98633C10.0352 8.98633 9.72754 9.30273 9.72754 9.70703V18.6104C9.72754 19.0146 10.0352 19.3311 10.4395 19.3311ZM15.8535 18.2236C16.2578 18.2236 16.5654 17.8984 16.5654 17.5029V10.8145C16.5654 10.4102 16.2578 10.0938 15.8535 10.0938C15.4404 10.0938 15.1328 10.4189 15.1328 10.8145V17.5029C15.1328 17.8984 15.4404 18.2236 15.8535 18.2236ZM21.25 16.7295C21.6631 16.7295 21.9707 16.4131 21.9707 16.0088V12.3086C21.9707 11.9043 21.6631 11.5879 21.25 11.5879C20.8369 11.5879 20.5293 11.9043 20.5293 12.3086V16.0088C20.5293 16.4131 20.8457 16.7295 21.25 16.7295ZM7.74121 16.0352C8.1543 16.0352 8.46191 15.7188 8.46191 15.3145V13.0029C8.46191 12.5986 8.14551 12.2734 7.74121 12.2734C7.32812 12.2734 7.02051 12.5986 7.02051 13.0029V15.3145C7.02051 15.7188 7.32812 16.0352 7.74121 16.0352Z" fill="#48FFBD"/>
</svg>
