<svg width="20" height="20" viewBox="0 0 20 20" fill="none" xmlns="http://www.w3.org/2000/svg">
<path d="M18.925 11.163C19.0908 9.89353 18.9837 8.6033 18.611 7.37851C18.2383 6.15371 17.6085 5.02255 16.7637 4.06059C15.919 3.09862 14.8786 2.32801 13.7122 1.80022C12.5458 1.27242 11.2802 0.999611 10 1C7.61305 1 5.32387 1.94821 3.63604 3.63604C1.94821 5.32387 1 7.61305 1 10C1 12.3869 1.94821 14.6761 3.63604 16.364C5.32387 18.0518 7.61305 19 10 19M7 8H7.01M13 8H13.01" stroke="white" stroke-width="2" stroke-linecap="round" stroke-linejoin="round"/>
<path d="M7.5 13C8.158 13.64 9.06 14 10 14C10.94 14 11.842 13.64 12.5 13M13 17L15 19L19 15" stroke="white" stroke-width="2" stroke-linecap="round" stroke-linejoin="round"/>
</svg>
