<svg width="28" height="28" viewBox="0 0 28 28" fill="none" xmlns="http://www.w3.org/2000/svg">
<path d="M9.55469 23.5449C10.0557 23.5449 10.4248 23.2988 11.0312 22.7627L14.0459 20.1084H19.3369C21.9824 20.1084 23.4678 18.5791 23.4678 15.9688V9.13965C23.4678 6.5293 21.9824 5 19.3369 5H8.13086C5.49414 5 4 6.5293 4 9.13965V15.9688C4 18.5879 5.53809 20.1084 8.06934 20.1084H8.42969V22.2617C8.42969 23.0439 8.84277 23.5449 9.55469 23.5449ZM9.99414 21.5762V19.0713C9.99414 18.5527 9.76562 18.3506 9.27344 18.3506H8.19238C6.54004 18.3506 5.74902 17.5156 5.74902 15.916V9.19238C5.74902 7.59277 6.54004 6.75781 8.19238 6.75781H19.2842C20.9277 6.75781 21.7188 7.59277 21.7188 9.19238V15.916C21.7188 17.5156 20.9277 18.3506 19.2842 18.3506H13.9492C13.4131 18.3506 13.1494 18.4385 12.7803 18.8252L9.99414 21.5762ZM9.50195 13.8682C10.2227 13.8682 10.8027 13.2793 10.8027 12.5498C10.8027 11.8291 10.2227 11.2402 9.50195 11.2402C8.77246 11.2402 8.18359 11.8291 8.18359 12.5498C8.18359 13.2793 8.77246 13.8682 9.50195 13.8682ZM13.7383 13.8682C14.459 13.8682 15.0479 13.2793 15.0479 12.5498C15.0479 11.8291 14.459 11.2402 13.7383 11.2402C13.0176 11.2402 12.4287 11.8291 12.4287 12.5498C12.4287 13.2793 13.0176 13.8682 13.7383 13.8682ZM17.9834 13.8682C18.7041 13.8682 19.293 13.2793 19.293 12.5498C19.293 11.8291 18.7041 11.2402 17.9834 11.2402C17.2627 11.2402 16.6738 11.8291 16.6738 12.5498C16.6738 13.2793 17.2627 13.8682 17.9834 13.8682Z" fill="#ACACB5"/>
</svg>
