<svg width="36" height="36" viewBox="0 0 36 36" fill="none" xmlns="http://www.w3.org/2000/svg">
<path d="M26.7927 22.2444C26.2724 21.3481 25.4989 18.8122 25.4989 15.5C25.4989 13.5109 24.7087 11.6032 23.3022 10.1967C21.8957 8.79018 19.988 8 17.9989 8C16.0098 8 14.1021 8.79018 12.6956 10.1967C11.2891 11.6032 10.4989 13.5109 10.4989 15.5C10.4989 18.8131 9.72454 21.3481 9.20423 22.2444C9.07135 22.4722 9.00091 22.7311 9.00001 22.9949C8.9991 23.2586 9.06776 23.518 9.19907 23.7467C9.33037 23.9755 9.51968 24.1656 9.74789 24.2978C9.9761 24.4301 10.2351 24.4998 10.4989 24.5H14.3249C14.4979 25.3467 14.9581 26.1077 15.6275 26.6542C16.297 27.2007 17.1347 27.4992 17.9989 27.4992C18.8631 27.4992 19.7008 27.2007 20.3703 26.6542C21.0398 26.1077 21.4999 25.3467 21.673 24.5H25.4989C25.7626 24.4996 26.0215 24.4298 26.2496 24.2975C26.4777 24.1651 26.6669 23.975 26.7981 23.7463C26.9293 23.5176 26.9978 23.2583 26.9969 22.9946C26.9959 22.7309 26.9255 22.4722 26.7927 22.2444ZM17.9989 26C17.5337 25.9999 17.0801 25.8555 16.7003 25.5869C16.3205 25.3183 16.0333 24.9386 15.8783 24.5H20.1195C19.9645 24.9386 19.6773 25.3183 19.2975 25.5869C18.9178 25.8555 18.4641 25.9999 17.9989 26ZM10.4989 23C11.2208 21.7588 11.9989 18.8825 11.9989 15.5C11.9989 13.9087 12.6311 12.3826 13.7563 11.2574C14.8815 10.1321 16.4076 9.5 17.9989 9.5C19.5902 9.5 21.1163 10.1321 22.2416 11.2574C23.3668 12.3826 23.9989 13.9087 23.9989 15.5C23.9989 18.8797 24.7752 21.7559 25.4989 23H10.4989Z" fill="white"/>
</svg>
