<svg width="512" height="512" viewBox="0 0 512 512" fill="none" xmlns="http://www.w3.org/2000/svg">
<rect width="512" height="512" fill="black"/>
<path d="M240.039 96.7828H133.373C129.862 96.7828 126.822 99.2235 126.064 102.652L56 419.571H162.666C166.177 419.571 169.217 417.13 169.975 413.702L240.039 96.7828Z" fill="#4FE570"/>
<path d="M305.957 133.877L208.912 237.295L199.225 281.577L211.347 299.886L326.365 164.595L305.957 133.877Z" fill="#4FE570"/>
<path d="M346.276 88.0385L310.158 129.82L331.149 161.393L378.56 110.748L353.117 87.6182C351.128 85.8109 348.037 86.0008 346.276 88.0385Z" fill="#4FE570"/>
<path d="M275.35 236.06L215.256 304.97L290.374 413.775C301.642 428.283 346.477 439.163 376.76 413.775C393.138 400.044 401.227 391.158 414.319 373.88C414.319 373.88 440.61 330.358 448.122 312.224C455.634 294.09 461.249 272.348 448.122 250.568L381.917 116.617L335.445 167.151L421.831 294.09C423.599 297.902 424.677 305.92 419.998 312.971C419.998 312.971 391.783 359.373 380.516 363C369.248 366.626 362.461 366.333 354.224 355.746L275.35 236.06Z" fill="#4FE570"/>
</svg>
