<svg xmlns="http://www.w3.org/2000/svg" width="24" height="24" viewBox="0 0 24 24" fill="none">
  <path d="M7.15402 12.0181L7.15403 12.0181L7.15244 12.0166C6.87081 11.7486 6.64825 11.431 6.49649 11.0825C6.34475 10.7341 6.26649 10.3611 6.26563 9.98474C6.26477 9.60841 6.34133 9.2351 6.49146 8.88606C6.64163 8.53697 6.86272 8.21842 7.1431 7.94927C7.42352 7.68007 7.75767 7.46566 8.12688 7.31931C8.4961 7.17294 8.89248 7.0978 9.29306 7.09864C9.69365 7.09948 10.0897 7.17629 10.4582 7.3242C10.8267 7.47209 11.1598 7.68789 11.439 7.95824L11.781 8.28942L12.1285 7.96409C12.6961 7.43278 13.463 7.13429 14.2639 7.13911C15.0648 7.14392 15.8276 7.45161 16.388 7.98954C16.9478 8.52682 17.2606 9.2498 17.2656 10.0006C17.2706 10.7504 16.9683 11.476 16.4173 12.0198L12.4363 15.8421C12.4363 15.8421 12.4363 15.8421 12.4362 15.8421C12.2673 16.0042 12.0341 16.0986 11.7869 16.0986C11.5396 16.0986 11.3063 16.0042 11.1374 15.8421L7.15402 12.0181Z" fill="#FF5656" stroke="#FF5656"/>
</svg>
