<svg width="60" height="24" viewBox="0 0 60 24" fill="none" xmlns="http://www.w3.org/2000/svg">
<path d="M55.3744 19.8645C54.5198 19.8645 53.7471 19.7288 53.0562 19.4573C52.3725 19.1788 51.7885 18.7924 51.3043 18.2981C50.8271 17.8038 50.4603 17.2224 50.2039 16.5541C49.9475 15.8857 49.8193 15.1652 49.8193 14.3924V13.9747C49.8193 13.0905 49.9511 12.2899 50.2146 11.5728C50.4781 10.8557 50.8449 10.243 51.3149 9.7348C51.785 9.21961 52.3405 8.82626 52.9815 8.55474C53.6224 8.28322 54.3168 8.14746 55.0646 8.14746C55.8908 8.14746 56.6136 8.28322 57.2332 8.55474C57.8528 8.82626 58.3656 9.20917 58.7716 9.70347C59.1846 10.1908 59.4909 10.7721 59.6903 11.4475C59.8968 12.1228 60.0001 12.8677 60.0001 13.6823V14.7579H51.0692V12.9513H57.4576V12.7528C57.4433 12.3003 57.3507 11.8756 57.1798 11.4788C57.016 11.0819 56.7632 10.7617 56.4213 10.518C56.0795 10.2744 55.6237 10.1525 55.0539 10.1525C54.6266 10.1525 54.2456 10.243 53.9109 10.424C53.5833 10.5981 53.3091 10.8522 53.0883 11.1864C52.8675 11.5206 52.6966 11.9244 52.5755 12.3978C52.4616 12.8642 52.4046 13.3899 52.4046 13.9747V14.3924C52.4046 14.8867 52.4722 15.3462 52.6076 15.7709C52.75 16.1886 52.9565 16.5541 53.2272 16.8674C53.4978 17.1807 53.8254 17.4278 54.21 17.6088C54.5946 17.7829 55.0326 17.8699 55.524 17.8699C56.1436 17.8699 56.6955 17.7481 57.1798 17.5044C57.6641 17.2607 58.0843 16.9161 58.4404 16.4705L59.7971 17.755C59.5479 18.1101 59.2238 18.4512 58.825 18.7785C58.4262 19.0987 57.9383 19.3598 57.3614 19.5617C56.7917 19.7636 56.1293 19.8645 55.3744 19.8645Z" fill="white"/>
<path d="M43.5479 17.8595C43.9681 17.8595 44.3456 17.7794 44.6803 17.6193C45.0222 17.4522 45.2964 17.2224 45.5029 16.93C45.7166 16.6376 45.8341 16.3 45.8554 15.9171H48.2805C48.2662 16.6481 48.0454 17.313 47.6181 17.9117C47.1908 18.5104 46.6246 18.9873 45.9195 19.3424C45.2145 19.6905 44.4346 19.8645 43.58 19.8645C42.6969 19.8645 41.9277 19.7183 41.2725 19.4259C40.6173 19.1266 40.0725 18.7158 39.638 18.1936C39.2036 17.6715 38.876 17.0693 38.6552 16.387C38.4415 15.7047 38.3347 14.9737 38.3347 14.194V13.8285C38.3347 13.0487 38.4415 12.3177 38.6552 11.6354C38.876 10.9462 39.2036 10.3405 39.638 9.81834C40.0725 9.29619 40.6173 8.88892 41.2725 8.59651C41.9277 8.29714 42.6933 8.14746 43.5693 8.14746C44.4952 8.14746 45.3071 8.32847 46.005 8.6905C46.703 9.04556 47.2513 9.54334 47.6502 10.1839C48.0561 10.8174 48.2662 11.5554 48.2805 12.3978H45.8554C45.8341 11.98 45.7273 11.6041 45.535 11.2699C45.3498 10.9288 45.0863 10.6573 44.7444 10.4554C44.4097 10.2535 44.0073 10.1525 43.5373 10.1525C43.0174 10.1525 42.5865 10.257 42.2446 10.4658C41.9028 10.6677 41.6357 10.9462 41.4434 11.3013C41.2511 11.6494 41.1123 12.0427 41.0268 12.4813C40.9485 12.913 40.9093 13.362 40.9093 13.8285V14.194C40.9093 14.6604 40.9485 15.113 41.0268 15.5516C41.1051 15.9902 41.2405 16.3835 41.4327 16.7316C41.6322 17.0728 41.9028 17.3478 42.2446 17.5566C42.5865 17.7585 43.0209 17.8595 43.5479 17.8595Z" fill="white"/>
<path d="M13.9073 10.5285V24H11.3328V8.35632H13.7044L13.9073 10.5285ZM21.4387 13.9016V14.1209C21.4387 14.9424 21.339 15.7047 21.1396 16.4079C20.9473 17.1041 20.6589 17.7133 20.2743 18.2354C19.8969 18.7506 19.4304 19.1509 18.8749 19.4364C18.3193 19.7218 17.6784 19.8645 16.9519 19.8645C16.2326 19.8645 15.6023 19.7357 15.0611 19.4781C14.5269 19.2136 14.0747 18.8411 13.7044 18.3607C13.334 17.8804 13.0349 17.3164 12.807 16.669C12.5862 16.0145 12.4295 15.2975 12.337 14.5177V13.6718C12.4295 12.8433 12.5862 12.0914 12.807 11.4161C13.0349 10.7408 13.334 10.1595 13.7044 9.67214C14.0747 9.1848 14.5269 8.80885 15.0611 8.5443C15.5952 8.27974 16.2184 8.14746 16.9306 8.14746C17.657 8.14746 18.3015 8.2867 18.8642 8.56518C19.4268 8.8367 19.9004 9.22657 20.285 9.7348C20.6696 10.2361 20.958 10.8418 21.1503 11.5519C21.3426 12.255 21.4387 13.0383 21.4387 13.9016ZM18.8642 14.1209V13.9016C18.8642 13.3794 18.8143 12.8956 18.7146 12.45C18.6149 11.9975 18.4582 11.6006 18.2446 11.2595C18.0309 10.9183 17.7567 10.6538 17.422 10.4658C17.0944 10.2709 16.6991 10.1734 16.2362 10.1734C15.7804 10.1734 15.3887 10.25 15.0611 10.4032C14.7335 10.5494 14.4593 10.7547 14.2385 11.0193C14.0177 11.2838 13.8468 11.5937 13.7257 11.9487C13.6047 12.2968 13.5192 12.6763 13.4693 13.087V15.113C13.5548 15.6142 13.7008 16.0737 13.9073 16.4914C14.1139 16.9092 14.4059 17.2433 14.7833 17.494C15.1679 17.7376 15.6593 17.8595 16.2576 17.8595C16.7205 17.8595 17.1157 17.762 17.4434 17.5671C17.771 17.3721 18.038 17.1041 18.2446 16.763C18.4582 16.4149 18.6149 16.0145 18.7146 15.562C18.8143 15.1095 18.8642 14.6291 18.8642 14.1209Z" fill="white"/>
<path d="M7.02932 16.5959C7.02932 16.3452 6.96522 16.119 6.83702 15.9171C6.70883 15.7082 6.46313 15.5202 6.09991 15.3531C5.74381 15.1861 5.21679 15.0329 4.51885 14.8937C3.90636 14.7614 3.34373 14.6047 2.83096 14.4237C2.3253 14.2357 1.89086 14.0095 1.52765 13.7449C1.16443 13.4804 0.883116 13.1671 0.683702 12.805C0.484289 12.443 0.384583 12.0253 0.384583 11.5519C0.384583 11.0924 0.48785 10.6573 0.694385 10.2465C0.90092 9.83575 1.19648 9.47372 1.58106 9.16043C1.96564 8.84714 2.43213 8.59999 2.98052 8.41898C3.53602 8.23797 4.15563 8.14746 4.83933 8.14746C5.80791 8.14746 6.63761 8.30759 7.32844 8.62784C8.02638 8.94113 8.56052 9.36929 8.93086 9.91233C9.3012 10.4484 9.48637 11.0541 9.48637 11.7294H6.9118C6.9118 11.4301 6.83346 11.1516 6.67678 10.894C6.52722 10.6294 6.29932 10.4171 5.99308 10.257C5.68684 10.0899 5.30226 10.0063 4.83933 10.0063C4.39777 10.0063 4.031 10.0759 3.739 10.2152C3.45412 10.3475 3.24046 10.5215 3.09803 10.7373C2.96271 10.9532 2.89505 11.1899 2.89505 11.4475C2.89505 11.6354 2.93066 11.806 3.00188 11.9592C3.08022 12.1054 3.20842 12.2411 3.38646 12.3664C3.56451 12.4848 3.80666 12.5962 4.1129 12.7006C4.42626 12.805 4.81797 12.906 5.28801 13.0035C6.17113 13.1845 6.92961 13.4177 7.56346 13.7031C8.20443 13.9816 8.69584 14.3437 9.03769 14.7892C9.37954 15.2278 9.55047 15.7848 9.55047 16.4601C9.55047 16.9614 9.44008 17.4209 9.2193 17.8386C9.00564 18.2493 8.69228 18.6079 8.27921 18.9142C7.86614 19.2136 7.37117 19.4468 6.79429 19.6139C6.22454 19.781 5.58357 19.8645 4.87138 19.8645C3.82446 19.8645 2.93778 19.6835 2.21135 19.3215C1.48492 18.9525 0.932969 18.4826 0.555508 17.9117C0.185169 17.3338 0 16.7351 0 16.1155H2.4891C2.51759 16.5819 2.64935 16.9544 2.88437 17.2329C3.12651 17.5044 3.42563 17.7028 3.78173 17.8281C4.14495 17.9465 4.51885 18.0057 4.90343 18.0057C5.36635 18.0057 5.7545 17.9465 6.06786 17.8281C6.38122 17.7028 6.61981 17.5357 6.78361 17.3269C6.94741 17.1111 7.02932 16.8674 7.02932 16.5959Z" fill="white"/>
<ellipse cx="29.7401" cy="9.08721" rx="1.60116" ry="1.6087" fill="#48FFBD"/>
<path fill-rule="evenodd" clip-rule="evenodd" d="M24.0397 19.5511H27.2025C25.8687 18.6101 25.3848 12.2234 25.3848 11.297C25.3848 11.2304 25.3844 11.1527 25.3839 11.0649C25.3726 9.07489 25.3319 1.90532 29.7343 1.90532C34.1367 1.90532 34.096 9.07488 34.0847 11.0649C34.0842 11.1527 34.0837 11.2304 34.0837 11.297C34.0837 12.2234 33.5998 18.6101 32.2661 19.5511H35.4288C36.2697 18.5479 36.7559 12.0937 36.7559 11.0222C36.7559 8.60391 36.7559 3.04368e-07 29.7343 0C22.7127 -3.04367e-07 22.7126 8.6039 22.7126 11.0222C22.7126 12.0937 23.1989 18.5479 24.0397 19.5511Z" fill="white"/>
<rect x="23.8691" y="13.3042" width="11.7419" height="2.52174" fill="white"/>
</svg>
