<svg width="20" height="21" viewBox="0 0 20 21" fill="none" xmlns="http://www.w3.org/2000/svg">
<path d="M10.115 13.9048C10.5567 13.9048 10.9942 13.8177 11.4023 13.6487C11.8105 13.4796 12.1813 13.2318 12.4937 12.9195C12.8061 12.6071 13.0539 12.2362 13.2229 11.8281C13.392 11.42 13.479 10.9825 13.479 10.5408C13.479 10.099 13.392 9.66155 13.2229 9.25341C13.0539 8.84527 12.8061 8.47443 12.4937 8.16205C12.1813 7.84967 11.8105 7.60188 11.4023 7.43283C10.9942 7.26377 10.5567 7.17676 10.115 7.17676C9.22279 7.17676 8.36714 7.53118 7.73627 8.16205C7.1054 8.79292 6.75098 9.64857 6.75098 10.5408C6.75098 11.4329 7.1054 12.2886 7.73627 12.9195C8.36714 13.5503 9.22279 13.9048 10.115 13.9048Z" stroke="white" stroke-width="1.5" stroke-linecap="round" stroke-linejoin="round"/>
<path d="M18.966 13.595C18.5691 14.7341 17.9574 15.7864 17.164 16.695L15.04 16.213C14.2345 16.9357 13.2775 17.4687 12.239 17.773L11.665 19.852C11.127 19.9487 10.5816 19.9985 10.035 20.001C9.35118 20.0008 8.66956 19.9236 8.003 19.771L7.394 17.625C6.48611 17.291 5.65168 16.784 4.937 16.132L2.837 16.672C2.00317 15.6995 1.37792 14.566 1 13.342L2.55 11.62C2.40821 10.7394 2.43161 9.84006 2.619 8.968L1.09 7.373C1.53326 6.12132 2.23787 4.97832 3.157 4.02L5.327 4.56C5.92436 4.08066 6.59006 3.69338 7.302 3.411L7.876 1.287C8.58474 1.10227 9.3136 1.00587 10.046 1C10.631 1 11.216 1.054 11.791 1.16L12.342 3.273C13.172 3.542 13.95 3.953 14.638 4.49L16.82 3.927C17.701 4.81369 18.3956 5.86772 18.863 7.027L17.383 8.634C17.6635 9.73526 17.6868 10.8863 17.451 11.998L18.966 13.595Z" stroke="white" stroke-width="1.5" stroke-linecap="round" stroke-linejoin="round"/>
</svg>
