<svg width="52" height="52" viewBox="0 0 52 52" fill="none" xmlns="http://www.w3.org/2000/svg">
<rect width="52" height="52" rx="26" fill="#222226"/>
<path d="M30 18C30 15.7909 28.2091 14 26 14C23.7909 14 22 15.7909 22 18V24.6667C22 26.8758 23.7909 28.6667 26 28.6667C28.2091 28.6667 30 26.8758 30 24.6667V18Z" fill="#ACACB5" stroke="#ACACB5" stroke-width="2" stroke-linecap="round" stroke-linejoin="round"/>
<path d="M35.3327 24.667C35.3327 25.8927 35.0913 27.1063 34.6222 28.2387C34.1532 29.3711 33.4657 30.4 32.599 31.2667C31.7323 32.1333 30.7034 32.8208 29.5711 33.2899C28.4387 33.7589 27.225 34.0003 25.9993 34.0003M25.9993 34.0003C24.7737 34.0003 23.56 33.7589 22.4276 33.2899C21.2953 32.8208 20.2664 32.1333 19.3997 31.2667C18.533 30.4 17.8455 29.3711 17.3765 28.2387C16.9074 27.1063 16.666 25.8927 16.666 24.667M25.9993 34.0003V38.0003" stroke="#ACACB5" stroke-width="2" stroke-linecap="round" stroke-linejoin="round"/>
</svg>
