<svg width="36" height="36" viewBox="0 0 36 36" fill="none" xmlns="http://www.w3.org/2000/svg">
<path d="M18.115 20.9048C18.5567 20.9048 18.9942 20.8177 19.4023 20.6487C19.8105 20.4796 20.1813 20.2318 20.4937 19.9195C20.8061 19.6071 21.0539 19.2362 21.2229 18.8281C21.392 18.42 21.479 17.9825 21.479 17.5408C21.479 17.099 21.392 16.6616 21.2229 16.2534C21.0539 15.8453 20.8061 15.4744 20.4937 15.1621C20.1813 14.8497 19.8105 14.6019 19.4023 14.4328C18.9942 14.2638 18.5567 14.1768 18.115 14.1768C17.2228 14.1768 16.3671 14.5312 15.7363 15.1621C15.1054 15.7929 14.751 16.6486 14.751 17.5408C14.751 18.4329 15.1054 19.2886 15.7363 19.9195C16.3671 20.5503 17.2228 20.9048 18.115 20.9048Z" stroke="white" stroke-width="1.5" stroke-linecap="round" stroke-linejoin="round"/>
<path d="M26.966 20.595C26.5691 21.7341 25.9574 22.7864 25.164 23.695L23.04 23.213C22.2345 23.9357 21.2775 24.4687 20.239 24.773L19.665 26.852C19.127 26.9487 18.5816 26.9985 18.035 27.001C17.3512 27.0008 16.6696 26.9236 16.003 26.771L15.394 24.625C14.4861 24.291 13.6517 23.784 12.937 23.132L10.837 23.672C10.0032 22.6995 9.37792 21.566 9 20.342L10.55 18.62C10.4082 17.7394 10.4316 16.8401 10.619 15.968L9.09 14.373C9.53326 13.1213 10.2379 11.9783 11.157 11.02L13.327 11.56C13.9244 11.0807 14.5901 10.6934 15.302 10.411L15.876 8.287C16.5847 8.10227 17.3136 8.00587 18.046 8C18.631 8 19.216 8.054 19.791 8.16L20.342 10.273C21.172 10.542 21.95 10.953 22.638 11.49L24.82 10.927C25.701 11.8137 26.3956 12.8677 26.863 14.027L25.383 15.634C25.6635 16.7353 25.6868 17.8863 25.451 18.998L26.966 20.595Z" stroke="white" stroke-width="1.5" stroke-linecap="round" stroke-linejoin="round"/>
</svg>
