<svg width="24" height="24" viewBox="0 0 24 24" fill="none" xmlns="http://www.w3.org/2000/svg">
<path d="M19 11C19 11.9193 18.8189 12.8295 18.4672 13.6788C18.1154 14.5281 17.5998 15.2997 16.9497 15.9497C16.2997 16.5998 15.5281 17.1154 14.6788 17.4672C13.8295 17.8189 12.9193 18 12 18M12 18C11.0807 18 10.1705 17.8189 9.32122 17.4672C8.47194 17.1154 7.70026 16.5998 7.05025 15.9497C6.40024 15.2997 5.88463 14.5281 5.53284 13.6788C5.18106 12.8295 5 11.9193 5 11M12 18V21" stroke="#45454B" stroke-width="2" stroke-linecap="round" stroke-linejoin="round"/>
<path fill-rule="evenodd" clip-rule="evenodd" d="M8.91789 2.91793C8.33015 3.50567 7.99996 4.30281 7.99996 5.134C7.99982 5.5934 8.1008 6.0472 8.29575 6.46319C8.4907 6.87918 8.77482 7.24716 9.12796 7.541L14.27 11.826C14.3795 11.9172 14.5127 11.9753 14.654 11.9936C14.7954 12.0118 14.939 11.9894 15.068 11.9289C15.1971 11.8685 15.3063 11.7725 15.3828 11.6523C15.4593 11.5321 15.4999 11.3925 15.5 11.25V5.75C15.5 4.75544 15.1049 3.80161 14.4016 3.09835C13.6984 2.39509 12.7445 2 11.75 2H11.134C10.3028 2 9.50563 2.33019 8.91789 2.91793ZM9.6841 13.8159C10.7624 14.8942 12.225 15.5 13.75 15.5V15.4386L20.9537 21.5744C21.028 21.6423 21.1153 21.6946 21.2103 21.7282C21.3053 21.7617 21.406 21.7757 21.5065 21.7695C21.6071 21.7632 21.7053 21.7367 21.7954 21.6917C21.8854 21.6466 21.9655 21.5839 22.0308 21.5072C22.0961 21.4305 22.1453 21.3415 22.1755 21.2454C22.2056 21.1493 22.2161 21.0481 22.2063 20.9479C22.1965 20.8476 22.1666 20.7504 22.1184 20.662C22.0702 20.5735 22.0047 20.4957 21.9257 20.4331L9.50115 9.85056C9.50036 9.81709 9.49996 9.78356 9.49996 9.75H9.38309L2.54663 3.92709C2.39525 3.79831 2.19894 3.73488 2.00082 3.75074C1.8027 3.76661 1.61898 3.86046 1.49002 4.01168C1.36124 4.16307 1.29781 4.35938 1.31367 4.5575C1.32954 4.75561 1.42339 4.93933 1.57461 5.0683L8.06223 10.5941C8.2422 11.8068 8.80675 12.9385 9.6841 13.8159Z" fill="#45454B"/>
</svg>
