<svg width="52" height="52" viewBox="0 0 52 52" fill="none" xmlns="http://www.w3.org/2000/svg">
<rect width="52" height="52" rx="26" fill="#222226"/>
<path d="M15.7625 17C15.0298 17 14.3272 17.2659 13.8091 17.7391C13.291 18.2123 13 18.8542 13 19.5234V33.4766C13 34.1458 13.291 34.7877 13.8091 35.2609C14.3272 35.7341 15.0298 36 15.7625 36H36.2375C36.9702 36 37.6728 35.7341 38.1909 35.2609C38.709 34.7877 39 34.1458 39 33.4766V19.5234C39 18.8542 38.709 18.2123 38.1909 17.7391C37.6728 17.2659 36.9702 17 36.2375 17H15.7625ZM26 21.0078C26.2151 21.0078 26.4225 21.0862 26.5746 21.2251L30.4746 24.7876C30.627 24.9268 30.7126 25.1156 30.7126 25.3125C30.7126 25.5094 30.627 25.6982 30.4746 25.8374C30.3222 25.9766 30.1155 26.0548 29.9 26.0548C29.6845 26.0548 29.4778 25.9766 29.3254 25.8374L26.8125 23.5419V31.1016C26.8125 31.2984 26.7269 31.4872 26.5745 31.6264C26.4222 31.7656 26.2155 31.8438 26 31.8438C25.7845 31.8438 25.5778 31.7656 25.4255 31.6264C25.2731 31.4872 25.1875 31.2984 25.1875 31.1016V23.5419L22.6746 25.8374C22.5222 25.9766 22.3155 26.0548 22.1 26.0548C21.8845 26.0548 21.6778 25.9766 21.5254 25.8374C21.373 25.6982 21.2874 25.5094 21.2874 25.3125C21.2874 25.1156 21.373 24.9268 21.5254 24.7876L25.4254 21.2251C25.5009 21.1562 25.5904 21.1016 25.689 21.0643C25.7876 21.027 25.8933 21.0078 26 21.0078Z" fill="#ACACB5"/>
</svg>
