<svg width="52" height="52" viewBox="0 0 52 52" fill="none" xmlns="http://www.w3.org/2000/svg">
<rect width="52" height="52" rx="26" fill="#222226"/>
<path d="M35.3327 24.667C35.3327 25.8927 35.0913 27.1063 34.6222 28.2387C34.1532 29.3711 33.4657 30.4 32.599 31.2667C31.7323 32.1333 30.7034 32.8208 29.5711 33.2899C28.4387 33.7589 27.225 34.0003 25.9993 34.0003M25.9993 34.0003C24.7737 34.0003 23.56 33.7589 22.4276 33.2899C21.2953 32.8208 20.2664 32.1333 19.3997 31.2667C18.533 30.4 17.8455 29.3711 17.3765 28.2387C16.9074 27.1063 16.666 25.8927 16.666 24.667M25.9993 34.0003V38.0003" stroke="#FF5656" stroke-width="2" stroke-linecap="round" stroke-linejoin="round"/>
<path d="M21.1657 16.8458V16.8457C21.1657 15.87 21.5533 14.9343 22.2432 14.2444C22.9331 13.5546 23.8687 13.167 24.8444 13.167H25.6657C26.8592 13.167 28.0038 13.6411 28.8477 14.485C29.6916 15.3289 30.1657 16.4735 30.1657 17.667V25.0001C30.1657 25.0002 30.1657 25.0003 30.1657 25.0003C30.1656 25.0953 30.1385 25.1882 30.0876 25.2683C30.0366 25.3485 29.9638 25.4125 29.8778 25.4528C29.7917 25.4931 29.696 25.508 29.6018 25.4958C29.5076 25.4837 29.4188 25.445 29.3458 25.3842C29.3458 25.3842 29.3457 25.3842 29.3457 25.3841L22.4898 19.6709L22.4895 19.6706C22.0751 19.3258 21.7416 18.8939 21.5128 18.4057C21.2841 17.9175 21.1655 17.385 21.1657 16.8458ZM27.8324 29.5035V30.1495C26.1144 30.0295 24.4905 29.2936 23.2648 28.0679C22.1716 26.9747 21.468 25.5646 21.2435 24.0535L21.2159 23.868L21.0731 23.7464L12.4216 16.3775C12.4216 16.3775 12.4216 16.3774 12.4215 16.3774C12.3208 16.2914 12.2583 16.169 12.2477 16.037C12.2371 15.905 12.2793 15.7742 12.365 15.6733C12.451 15.5726 12.5734 15.5102 12.7054 15.4996C12.8375 15.489 12.9683 15.5313 13.0693 15.6172L22.1728 23.371L22.1844 23.381L22.3246 23.5003L22.3431 23.5161L38.9078 37.625L38.9146 37.6308L38.9215 37.6362C38.9741 37.6779 39.0178 37.7298 39.0499 37.7888L39.4889 37.5495L39.0499 37.7888C39.082 37.8477 39.102 37.9126 39.1085 37.9794C39.1151 38.0462 39.1081 38.1137 39.088 38.1777C39.0679 38.2418 39.0351 38.3012 38.9915 38.3523L39.3722 38.6765L38.9915 38.3523C38.948 38.4034 38.8946 38.4452 38.8346 38.4753C38.7745 38.5053 38.709 38.5229 38.642 38.5271C38.575 38.5313 38.5078 38.5219 38.4445 38.4996C38.3812 38.4772 38.323 38.4424 38.2735 38.3971L38.2669 38.3911L38.2602 38.3854L28.6566 30.2055L27.8324 29.5035Z" fill="#FF5656" stroke="#FF5656"/>
</svg>
