<svg width="42" height="42" viewBox="0 0 42 42" fill="none" xmlns="http://www.w3.org/2000/svg">
<g filter="url(#filter0_b_1293_9531)">
<g filter="url(#filter1_b_1293_9531)">
<circle cx="21" cy="21" r="21" fill="#767681" fill-opacity="0.3"/>
</g>
<path d="M30.059 20.3635C29.8018 20.3635 29.5552 20.4656 29.3733 20.6475C29.1915 20.8293 29.0893 21.076 29.0893 21.3332C29.1009 23.1494 28.4787 24.9129 27.33 26.3198C26.1812 27.7267 24.5778 28.689 22.7959 29.0409C21.0141 29.3928 19.1652 29.1124 17.5679 28.2479C15.9705 27.3833 14.7246 25.9888 14.0448 24.3046C13.3649 22.6203 13.2937 20.7516 13.8434 19.0205C14.393 17.2894 15.5291 15.8041 17.0561 14.8205C18.583 13.8368 20.4051 13.4165 22.2086 13.6317C24.0121 13.847 25.6841 14.6844 26.9366 15.9998H24.6093C24.3521 15.9998 24.1055 16.102 23.9236 16.2838C23.7418 16.4657 23.6396 16.7123 23.6396 16.9695C23.6396 17.2267 23.7418 17.4733 23.9236 17.6552C24.1055 17.8371 24.3521 17.9392 24.6093 17.9392H29.002C29.2592 17.9392 29.5059 17.8371 29.6877 17.6552C29.8696 17.4733 29.9717 17.2267 29.9717 16.9695V12.6059C29.9717 12.3487 29.8696 12.1021 29.6877 11.9202C29.5059 11.7383 29.2592 11.6362 29.002 11.6362C28.7449 11.6362 28.4982 11.7383 28.3164 11.9202C28.1345 12.1021 28.0323 12.3487 28.0323 12.6059V14.3222C26.4175 12.7785 24.3191 11.8398 22.092 11.6646C19.8649 11.4895 17.6456 12.0887 15.8092 13.361C13.9729 14.6333 12.6322 16.5006 12.0138 18.6473C11.3953 20.794 11.537 23.0884 12.415 25.1426C13.293 27.1969 14.8533 28.885 16.8322 29.9216C18.8112 30.9582 21.0874 31.2797 23.276 30.8318C25.4647 30.3839 27.4315 29.194 28.8441 27.4633C30.2567 25.7325 31.0284 23.5672 31.0287 21.3332C31.0287 21.076 30.9265 20.8293 30.7447 20.6475C30.5628 20.4656 30.3162 20.3635 30.059 20.3635Z" fill="white"/>
</g>
<defs>
<filter id="filter0_b_1293_9531" x="-5" y="-5" width="52" height="52" filterUnits="userSpaceOnUse" color-interpolation-filters="sRGB">
<feFlood flood-opacity="0" result="BackgroundImageFix"/>
<feGaussianBlur in="BackgroundImageFix" stdDeviation="2.5"/>
<feComposite in2="SourceAlpha" operator="in" result="effect1_backgroundBlur_1293_9531"/>
<feBlend mode="normal" in="SourceGraphic" in2="effect1_backgroundBlur_1293_9531" result="shape"/>
</filter>
<filter id="filter1_b_1293_9531" x="-5" y="-5" width="52" height="52" filterUnits="userSpaceOnUse" color-interpolation-filters="sRGB">
<feFlood flood-opacity="0" result="BackgroundImageFix"/>
<feGaussianBlur in="BackgroundImageFix" stdDeviation="2.5"/>
<feComposite in2="SourceAlpha" operator="in" result="effect1_backgroundBlur_1293_9531"/>
<feBlend mode="normal" in="SourceGraphic" in2="effect1_backgroundBlur_1293_9531" result="shape"/>
</filter>
</defs>
</svg>
