<svg width="52" height="52" viewBox="0 0 52 52" fill="none" xmlns="http://www.w3.org/2000/svg">
<rect width="52" height="52" rx="26" fill="#222226"/>
<path d="M22.5438 15.6306C22.6643 15.6306 22.7648 15.5502 22.7949 15.4196C23.046 13.9431 23.046 13.933 24.5326 13.6618C24.6733 13.6317 24.7637 13.5513 24.7637 13.4208C24.7637 13.2801 24.6733 13.1998 24.5427 13.1696C23.046 12.8683 23.0762 12.8683 22.7949 11.4219C22.7648 11.2913 22.6744 11.2109 22.5438 11.2109C22.4132 11.2109 22.3228 11.2913 22.3027 11.4219C22.0114 12.8783 22.0516 12.8884 20.555 13.1696C20.4143 13.1998 20.3239 13.2902 20.3239 13.4208C20.3239 13.5413 20.4043 13.6317 20.5449 13.6618C22.0516 13.9632 22.0315 13.9531 22.3027 15.4196C22.3228 15.5502 22.4132 15.6306 22.5438 15.6306ZM29.5349 18.3125C29.7157 18.3125 29.8563 18.192 29.8664 17.9911C30.1576 15.6808 30.2581 15.6105 32.6286 15.2288C32.8396 15.1987 32.9601 15.0882 32.9601 14.8973C32.9601 14.7266 32.8396 14.606 32.6688 14.5759C30.2681 14.1038 30.1576 14.1339 29.8664 11.8136C29.8563 11.6127 29.7157 11.4922 29.5349 11.4922C29.3641 11.4922 29.2335 11.6127 29.2134 11.8036C28.9121 14.1641 28.8418 14.2344 26.421 14.5759C26.2503 14.596 26.1297 14.7266 26.1297 14.8973C26.1297 15.0781 26.2503 15.1987 26.421 15.2288C28.8418 15.7109 28.9021 15.6908 29.2134 18.0212C29.2335 18.192 29.3742 18.3125 29.5349 18.3125ZM27.2648 19.8795L25.4969 18.1217C25.0349 17.6596 24.3117 17.6696 23.8597 18.1217C23.8295 18.1417 23.8195 18.1618 23.7994 18.192L27.1543 21.5569C27.094 20.9542 27.1242 20.3917 27.2648 19.8795ZM21.911 35.1373C25.1052 38.3315 29.1532 38.0804 32.036 35.1975C34.2056 33.0279 34.728 30.7478 33.9344 28.0056C33.5126 26.2176 32.488 24.2288 31.5739 22.5212C31.1219 21.6373 30.5594 20.4922 30.2079 20.0904C29.8061 19.6384 29.2235 19.6083 28.7614 20C28.2492 20.452 28.219 21.0547 28.5505 21.9989L29.6956 25.1228C29.8161 25.4241 29.786 25.6049 29.6855 25.7154C29.555 25.846 29.3842 25.8661 29.1431 25.625L21.6398 18.1217C21.1777 17.6596 20.4545 17.6596 20.0025 18.1217C19.5405 18.5737 19.5405 19.3069 20.0025 19.7589L25.4668 25.2232C25.2157 25.3437 24.9646 25.4844 24.7134 25.6551L18.3954 19.3471C17.9434 18.885 17.2201 18.885 16.7581 19.3471C16.296 19.7991 16.296 20.5223 16.7581 20.9844L22.9958 27.2221C22.805 27.4431 22.6242 27.6842 22.4534 27.9252L16.728 22.1998C16.2759 21.7478 15.5427 21.7377 15.0907 22.1998C14.6286 22.6518 14.6387 23.385 15.0907 23.8371L21.2983 30.0446C21.1777 30.3661 21.0974 30.6775 21.0271 30.9788L16.7079 26.6496C16.2559 26.1975 15.5326 26.1975 15.0706 26.6496C14.6085 27.1116 14.6085 27.8348 15.0706 28.2969L21.911 35.1373ZM35.8931 35.1975C38.0628 33.0279 38.5851 30.7478 37.7916 28.0056C37.3597 26.2176 36.3451 24.2288 35.4311 22.5212C34.969 21.6272 34.4065 20.4821 34.055 20.0904C33.6632 19.6384 33.0806 19.6083 32.6186 20C32.4277 20.1607 32.2972 20.3516 32.2369 20.5625C32.488 21.0446 32.7391 21.5469 33.0003 22.029C33.8742 23.6864 34.9489 25.7857 35.3608 27.6942C36.2849 30.9989 35.5416 33.7812 33.0806 36.2321C32.6387 36.6741 32.1766 37.0558 31.6945 37.3772C33.2012 37.1864 34.6677 36.433 35.8931 35.1975ZM16.728 38.4621C16.8987 38.4621 16.9891 38.3616 17.0193 38.2009C17.3608 36.2321 17.3608 36.192 19.4099 35.8103C19.5806 35.7801 19.671 35.6897 19.671 35.529C19.671 35.3583 19.5806 35.2679 19.4199 35.2377C17.3507 34.8259 17.4009 34.7958 17.0193 32.8471C16.9891 32.6864 16.8987 32.5859 16.728 32.5859C16.5773 32.5859 16.4768 32.6864 16.4467 32.8471C16.065 34.8058 16.1253 34.846 14.0561 35.2377C13.8954 35.2679 13.7949 35.3583 13.7949 35.529C13.7949 35.6897 13.8954 35.7801 14.0561 35.8103C16.1253 36.2221 16.0951 36.2422 16.4467 38.2009C16.4768 38.3616 16.5773 38.4621 16.728 38.4621Z" fill="#ACACB5"/>
</svg>
