<svg width="18" height="18" viewBox="0 0 18 18" fill="none" xmlns="http://www.w3.org/2000/svg">
<circle cx="9" cy="9" r="9" fill="#45454B" fill-opacity="0.8"/>
<path fill-rule="evenodd" clip-rule="evenodd" d="M5.98245 5.16041C5.87468 5.05632 5.73033 4.99872 5.58051 5.00002C5.43068 5.00132 5.28736 5.06142 5.18141 5.16737C5.07546 5.27332 5.01537 5.41664 5.01407 5.56646C5.01276 5.71629 5.07036 5.86063 5.17445 5.96841L8.19902 8.99298L5.17445 12.0175C5.11987 12.0703 5.07634 12.1333 5.04639 12.203C5.01644 12.2727 5.00068 12.3477 5.00002 12.4236C4.99936 12.4995 5.01382 12.5747 5.04255 12.645C5.07128 12.7152 5.11371 12.779 5.16737 12.8326C5.22102 12.8863 5.28482 12.9287 5.35505 12.9574C5.42527 12.9862 5.50052 13.0006 5.57639 13C5.65227 12.9993 5.72725 12.9836 5.79697 12.9536C5.86668 12.9237 5.92974 12.8801 5.98245 12.8256L9.00702 9.80098L12.0316 12.8256C12.1394 12.9296 12.2837 12.9872 12.4335 12.9859C12.5834 12.9846 12.7267 12.9245 12.8326 12.8186C12.9386 12.7126 12.9987 12.5693 13 12.4195C13.0013 12.2697 12.9437 12.1253 12.8396 12.0175L9.81502 8.99298L12.8396 5.96841C12.9437 5.86063 13.0013 5.71629 13 5.56646C12.9987 5.41664 12.9386 5.27332 12.8326 5.16737C12.7267 5.06142 12.5834 5.00132 12.4335 5.00002C12.2837 4.99872 12.1394 5.05632 12.0316 5.16041L9.00702 8.18498L5.98245 5.16041Z" fill="white"/>
</svg>
