<svg width="36" height="36" viewBox="0 0 36 36" fill="none" xmlns="http://www.w3.org/2000/svg">
<path d="M9 12.25C9 11.388 9.34241 10.5614 9.9519 9.9519C10.5614 9.34241 11.388 9 12.25 9H23.749C24.611 9 25.4376 9.34241 26.0471 9.9519C26.6566 10.5614 26.999 11.388 26.999 12.25V17.012C26.4887 16.9679 25.9752 17.0433 25.499 17.232V15.999H21.499V19.999H22.354L19.999 22.354V21.499H15.999V25.499H17.54L17.52 25.575L17.164 26.998H12.25C11.388 26.998 10.5614 26.6556 9.9519 26.0461C9.34241 25.4366 9 24.61 9 23.748V12.25ZM12.25 10.5C11.7859 10.5 11.3408 10.6844 11.0126 11.0126C10.6844 11.3408 10.5 11.7859 10.5 12.25V14.5H14.5V10.5H12.25ZM10.5 16V19.999H14.5V15.999L10.5 16ZM16 16V19.999H19.999V15.999L16 16ZM21.499 14.5H25.499V12.25C25.499 11.7859 25.3146 11.3408 24.9864 11.0126C24.6582 10.6844 24.2131 10.5 23.749 10.5H21.499V14.5ZM19.999 10.5H15.999V14.5H19.999V10.5ZM10.499 21.499V23.749C10.499 24.715 11.283 25.499 12.249 25.499H14.5V21.499H10.499ZM25.765 18.205C25.5169 18.3189 25.291 18.476 25.098 18.669L19.197 24.57C18.8531 24.9146 18.6088 25.3459 18.49 25.818L18.033 27.648C17.833 28.445 18.555 29.166 19.351 28.967L21.181 28.509C21.653 28.3904 22.0842 28.1465 22.429 27.803L28.33 21.9C28.709 21.5211 28.9428 21.0211 28.9906 20.4873C29.0384 19.9535 28.8972 19.4199 28.5915 18.9797C28.2859 18.5395 27.8353 18.2206 27.3185 18.0788C26.8017 17.937 26.2515 17.9814 25.764 18.204" fill="#767681"/>
</svg>
