<svg width="36" height="36" viewBox="0 0 36 36" fill="none" xmlns="http://www.w3.org/2000/svg">
<path d="M19.7176 30.1893C20.5991 30.1893 21.2093 29.4774 21.6274 28.3926L29.0855 8.88839C29.2776 8.37988 29.3906 7.93917 29.3906 7.55497C29.3906 6.75265 28.8821 6.24414 28.0685 6.24414C27.6956 6.24414 27.2436 6.34584 26.7464 6.53795L7.1518 14.0413C6.17998 14.4142 5.44547 15.0244 5.44547 15.9058C5.44547 16.9907 6.24778 17.3975 7.3552 17.7252L15.514 20.1208L17.887 28.1892C18.226 29.3418 18.6328 30.1893 19.7176 30.1893ZM16.1694 18.0416L9.15194 15.8945C8.98243 15.8493 8.93723 15.7928 8.93723 15.725C8.93723 15.6459 8.98243 15.5781 9.12934 15.5329L22.5427 10.4026C23.5032 10.0297 24.4411 9.57771 25.4695 9.1031C24.6558 9.75851 23.6614 10.5608 22.9834 11.2388L16.1694 18.0416ZM19.9211 26.7088C19.8419 26.7088 19.7854 26.641 19.7402 26.4828L17.5932 19.4654L24.3959 12.6514C25.0514 11.9847 25.8876 10.9563 26.543 10.1314C26.0684 11.171 25.6051 12.1203 25.2322 13.0921L20.1019 26.5054C20.0454 26.6523 20.0002 26.7088 19.9211 26.7088Z" fill="#48FFBD"/>
</svg>
