<svg xmlns="http://www.w3.org/2000/svg" width="21" height="22" viewBox="0 0 21 22" fill="none">
<path d="M11 21C12.3135 21.0017 13.6143 20.7438 14.8278 20.2412C16.0413 19.7385 17.1435 19.001 18.071 18.071C19.001 17.1435 19.7385 16.0413 20.2412 14.8278C20.7438 13.6143 21.0017 12.3135 21 11C21.0017 9.68655 20.7438 8.3857 20.2411 7.17222C19.7385 5.95875 19.001 4.85656 18.071 3.92901C17.1435 2.99902 16.0413 2.26151 14.8278 1.75885C13.6143 1.25619 12.3135 0.998307 11 1.00001C9.68655 0.998334 8.3857 1.25623 7.17222 1.75889C5.95875 2.26154 4.85656 2.99904 3.92901 3.92901C2.99904 4.85656 2.26154 5.95875 1.75889 7.17222C1.25623 8.3857 0.998334 9.68655 1.00001 11C0.998307 12.3135 1.25619 13.6143 1.75885 14.8278C2.26151 16.0413 2.99902 17.1435 3.92901 18.071C4.85656 19.001 5.95875 19.7385 7.17222 20.2411C8.3857 20.7438 9.68655 21.0017 11 21Z" fill="#48FFBD" stroke="#48FFBD" stroke-width="1.5" stroke-linejoin="round"/>
<path d="M7 11L10 14L16 8" stroke="#222226" stroke-width="1.5" stroke-linecap="round" stroke-linejoin="round"/>
</svg>