<svg width="56" height="56" viewBox="0 0 56 56" fill="none" xmlns="http://www.w3.org/2000/svg">
<path fill-rule="evenodd" clip-rule="evenodd" d="M38.1618 42.8516H38.4178C40.4633 42.8516 42.1215 41.1934 42.1215 39.1479V10.5553C42.1215 8.50977 40.4633 6.85156 38.4178 6.85156H23.4595L33.6084 10.0137C36.3169 10.8576 38.1618 13.3649 38.1618 16.2018V42.8516ZM35.384 42.8516H20.3133L16.7234 41.733C15.1757 41.2508 14.1215 39.8181 14.1215 38.197V10.6265C14.1215 8.75351 15.9373 7.41734 17.7255 7.9745L32.7821 12.6657C34.3298 13.148 35.384 14.5807 35.384 16.2018V42.8516Z" fill="#2B9971"/>
<path d="M14 9.8257C14 7.93787 15.8427 6.59993 17.6377 7.18438L33.4429 12.3302C34.9678 12.8267 36 14.2483 36 15.852V47.4495C36 48.7081 34.7716 49.6 33.5748 49.2104L16.5571 43.6698C15.0322 43.1733 14 41.7517 14 40.148V9.8257Z" fill="url(#paint0_linear_1016_13708)"/>
<path d="M18.1649 14.8588C18.1649 14.2388 18.7623 13.794 19.3563 13.9717L29.9991 17.1564C30.3911 17.2737 30.6596 17.6343 30.6596 18.0435V20.8332C30.6596 21.4532 30.0622 21.898 29.4683 21.7203L18.8254 18.5356C18.4334 18.4183 18.1649 18.0577 18.1649 17.6485V14.8588Z" fill="#48FFBD"/>
<defs>
<linearGradient id="paint0_linear_1016_13708" x1="16.4989" y1="11.5" x2="34.0347" y2="52.3411" gradientUnits="userSpaceOnUse">
<stop stop-color="#3ACC97"/>
<stop offset="1" stop-color="#5AFE7E"/>
</linearGradient>
</defs>
</svg>
