<svg width="56" height="56" viewBox="0 0 56 56" fill="none" xmlns="http://www.w3.org/2000/svg">
<path fill-rule="evenodd" clip-rule="evenodd" d="M17.519 41.7382C18.5353 42.5289 19.8127 42.9998 21.2 42.9998H42C45.3137 42.9998 48 40.3135 48 36.9998V26.0254C48 23.2475 46.1122 20.9105 43.5494 20.2274L44.9679 27.0627C45.9217 31.6592 42.977 36.197 38.3906 37.1982L18.0331 41.6422C17.8615 41.6797 17.6901 41.7116 17.519 41.7382ZM15.6586 39.3043C15.3631 38.5948 15.2 37.8163 15.2 36.9998V26.0254C15.2 22.7117 17.8863 20.0254 21.2 20.0254H40.9544L42.5254 27.5959C43.1987 30.8405 41.12 34.0437 37.8826 34.7504L17.5251 39.1944C16.8944 39.332 16.2662 39.3648 15.6586 39.3043Z" fill="#2B9971"/>
<g clip-path="url(#clip0_1016_13705)">
<rect width="41" height="28" rx="6" transform="matrix(0.976992 -0.213274 0.203189 0.97914 7 18.0034)" fill="#48FFBD"/>
<path d="M33.8413 26.0798C35.0501 24.2172 37.5245 23.677 39.368 24.8734L59.6336 38.0245L20.5539 46.5554L33.8413 26.0798Z" fill="#3ACC97"/>
<path d="M16.7175 23.7548C17.8752 21.4534 20.8495 20.8042 22.8207 22.4225L43.5953 39.4788L4.51563 48.0097L16.7175 23.7548Z" fill="#195942"/>
<circle cx="2" cy="2" r="2" transform="matrix(0.997887 -0.00476815 -0.00464894 1.00209 31.4545 18.019)" fill="#195942"/>
</g>
<defs>
<clipPath id="clip0_1016_13705">
<rect width="32.8369" height="22.9498" rx="6" transform="matrix(0.976992 -0.213274 0.203189 0.97914 7 18.0034)" fill="white"/>
</clipPath>
</defs>
</svg>
